<mxfile host="app.diagrams.net" modified="2023-02-11T08:04:24.896Z" agent="5.0 (Windows NT 10.0; Win64; x64) AppleWebKit/537.36 (KHTML, like Gecko) Chrome/110.0.0.0 Safari/537.36" etag="yb2qu3V9VXle5PKtttXn" version="20.8.20" type="github">
  <diagram name="第 1 页" id="45e1RVT2QQFBY6jEHa_o">
    <mxGraphModel dx="794" dy="484" grid="1" gridSize="10" guides="1" tooltips="1" connect="1" arrows="1" fold="1" page="1" pageScale="1" pageWidth="827" pageHeight="1169" math="0" shadow="0">
      <root>
        <mxCell id="0" />
        <mxCell id="1" parent="0" />
        <mxCell id="A8M-WVdensZmk5pqQo09-3" style="edgeStyle=orthogonalEdgeStyle;rounded=0;orthogonalLoop=1;jettySize=auto;html=1;exitX=1;exitY=0.5;exitDx=0;exitDy=0;entryX=0;entryY=0.5;entryDx=0;entryDy=0;" edge="1" parent="1" source="A8M-WVdensZmk5pqQo09-1" target="A8M-WVdensZmk5pqQo09-2">
          <mxGeometry relative="1" as="geometry" />
        </mxCell>
        <mxCell id="A8M-WVdensZmk5pqQo09-1" value="&lt;font style=&quot;font-size: 18px;&quot;&gt;目标框选择&lt;/font&gt;" style="rounded=1;whiteSpace=wrap;html=1;" vertex="1" parent="1">
          <mxGeometry x="170" y="190" width="120" height="60" as="geometry" />
        </mxCell>
        <mxCell id="A8M-WVdensZmk5pqQo09-4" style="edgeStyle=orthogonalEdgeStyle;rounded=0;orthogonalLoop=1;jettySize=auto;html=1;exitX=1;exitY=0.5;exitDx=0;exitDy=0;fontSize=18;" edge="1" parent="1" source="A8M-WVdensZmk5pqQo09-2">
          <mxGeometry relative="1" as="geometry">
            <mxPoint x="510" y="220" as="targetPoint" />
          </mxGeometry>
        </mxCell>
        <mxCell id="A8M-WVdensZmk5pqQo09-2" value="&lt;font style=&quot;font-size: 18px;&quot;&gt;特征提取&lt;/font&gt;" style="whiteSpace=wrap;html=1;rounded=1;" vertex="1" parent="1">
          <mxGeometry x="340" y="190" width="120" height="60" as="geometry" />
        </mxCell>
        <mxCell id="A8M-WVdensZmk5pqQo09-6" style="edgeStyle=orthogonalEdgeStyle;rounded=0;orthogonalLoop=1;jettySize=auto;html=1;exitX=1;exitY=0.5;exitDx=0;exitDy=0;fontSize=18;" edge="1" parent="1" source="A8M-WVdensZmk5pqQo09-5">
          <mxGeometry relative="1" as="geometry">
            <mxPoint x="660" y="220" as="targetPoint" />
          </mxGeometry>
        </mxCell>
        <mxCell id="A8M-WVdensZmk5pqQo09-5" value="&lt;font style=&quot;font-size: 18px;&quot;&gt;目标建模&lt;/font&gt;" style="whiteSpace=wrap;html=1;rounded=1;" vertex="1" parent="1">
          <mxGeometry x="510" y="190" width="120" height="60" as="geometry" />
        </mxCell>
        <mxCell id="A8M-WVdensZmk5pqQo09-10" style="edgeStyle=orthogonalEdgeStyle;rounded=0;orthogonalLoop=1;jettySize=auto;html=1;exitX=1;exitY=0.5;exitDx=0;exitDy=0;fontSize=18;" edge="1" parent="1" source="A8M-WVdensZmk5pqQo09-9">
          <mxGeometry relative="1" as="geometry">
            <mxPoint x="810" y="220" as="targetPoint" />
          </mxGeometry>
        </mxCell>
        <mxCell id="A8M-WVdensZmk5pqQo09-9" value="&lt;font style=&quot;font-size: 18px;&quot;&gt;区域相似度搜索&lt;/font&gt;" style="whiteSpace=wrap;html=1;rounded=1;" vertex="1" parent="1">
          <mxGeometry x="660" y="190" width="120" height="60" as="geometry" />
        </mxCell>
        <mxCell id="A8M-WVdensZmk5pqQo09-14" style="edgeStyle=orthogonalEdgeStyle;rounded=0;orthogonalLoop=1;jettySize=auto;html=1;exitX=0.5;exitY=0;exitDx=0;exitDy=0;entryX=1;entryY=0.5;entryDx=0;entryDy=0;fontSize=18;" edge="1" parent="1" source="A8M-WVdensZmk5pqQo09-11" target="A8M-WVdensZmk5pqQo09-13">
          <mxGeometry relative="1" as="geometry" />
        </mxCell>
        <mxCell id="A8M-WVdensZmk5pqQo09-11" value="&lt;font style=&quot;font-size: 18px;&quot;&gt;位置输出&lt;/font&gt;" style="whiteSpace=wrap;html=1;rounded=1;" vertex="1" parent="1">
          <mxGeometry x="810" y="190" width="120" height="60" as="geometry" />
        </mxCell>
        <mxCell id="A8M-WVdensZmk5pqQo09-15" style="edgeStyle=orthogonalEdgeStyle;rounded=0;orthogonalLoop=1;jettySize=auto;html=1;exitX=0;exitY=0.5;exitDx=0;exitDy=0;entryX=0.5;entryY=0;entryDx=0;entryDy=0;fontSize=18;" edge="1" parent="1" source="A8M-WVdensZmk5pqQo09-13" target="A8M-WVdensZmk5pqQo09-5">
          <mxGeometry relative="1" as="geometry" />
        </mxCell>
        <mxCell id="A8M-WVdensZmk5pqQo09-13" value="更新目标特征" style="rounded=1;whiteSpace=wrap;html=1;fontSize=18;" vertex="1" parent="1">
          <mxGeometry x="640" y="80" width="120" height="60" as="geometry" />
        </mxCell>
      </root>
    </mxGraphModel>
  </diagram>
</mxfile>
